<?xml version="1.0" encoding="utf-8"?>
<!-- Generator: Adobe Illustrator 27.5.0, SVG Export Plug-In . SVG Version: 6.00 Build 0)  -->
<svg version="1.1" id="Calque_1" xmlns="http://www.w3.org/2000/svg" x="0px" y="0px" viewBox="0 0 48 48" style="enable-background:new 0 0 48 48;" xml:space="preserve">
<path d="M40.2,12.8c-1.6-1.6-3.6-2.6-5.8-2.9c0.5,0.9,0.9,1.9,1.3,2.9c1,0.4,1.9,1,2.8,1.8c1.5,1.5,2.3,3.4,2.3,5.5
	c0,1.9-0.4,3.4-1.1,4.5c-0.7,1.1-1.7,2.5-2.9,4.1c-0.6,0.8-1.3,1.7-2,2.6c-0.7,0.9-1.3,1.9-1.9,3c-0.6-1-1.1-2-1.7-2.8
	c0,0.1-0.1,0.1-0.1,0.2c-0.5,0.6-1,1.3-1.5,2c0.8,1.2,1.4,2.6,1.9,4.2c0.1,0.3,0.3,0.6,0.5,0.8c0.3,0.2,0.5,0.3,0.9,0.3
	c0.3,0,0.6-0.1,0.9-0.3s0.4-0.5,0.6-0.8c0.7-2,1.5-3.7,2.5-5.1c1-1.3,2-2.6,2.9-3.9c1-1.2,1.8-2.5,2.4-3.9c0.7-1.3,1-3,1-5
	C43.2,17.2,42.2,14.8,40.2,12.8z" />
<path d="M20.2,38.5c0.8-1.6,1.7-3,2.7-4.3c0.9-1.3,1.9-2.5,2.8-3.7c1.8-2.3,3.2-4.3,4.2-5.9s1.5-3.8,1.5-6.5c0-3.1-1.1-5.8-3.3-7.9
	c-2.2-2.2-4.8-3.3-8-3.3c-3.1,0-5.8,1.1-7.9,3.3C10,12.4,8.9,15,8.9,18.1c0,2.7,0.5,4.9,1.5,6.5s2.4,3.6,4.2,5.9
	c0.9,1.2,1.9,2.4,2.8,3.7C18.5,35.5,19.4,37,20.2,38.5z M20.2,45.1c-0.5,0-0.9-0.1-1.3-0.4s-0.6-0.6-0.7-1.1c-1-2.9-2.2-5.4-3.6-7.3
	c-1.4-1.9-2.9-3.8-4.2-5.5C9,29,7.9,27.2,6.9,25.3S5.4,21,5.4,18.1c0-4.1,1.4-7.6,4.3-10.5s6.4-4.3,10.5-4.3s7.7,1.4,10.5,4.3
	C33.6,10.5,35,14,35,18.1c0,2.9-0.5,5.2-1.4,7.1c-1,1.9-2.1,3.7-3.5,5.5s-2.8,3.6-4.2,5.5c-1.4,1.9-2.6,4.4-3.6,7.3
	c-0.2,0.5-0.4,0.8-0.8,1.1C21.1,45,20.7,45.1,20.2,45.1z" />
</svg>
