<?xml version="1.0" encoding="utf-8"?>
<!-- Generator: Adobe Illustrator 27.5.0, SVG Export Plug-In . SVG Version: 6.00 Build 0)  -->
<svg version="1.1" id="Calque_1" xmlns="http://www.w3.org/2000/svg" xmlns:xlink="http://www.w3.org/1999/xlink" x="0px" y="0px"
	 viewBox="0 0 21 21" style="enable-background:new 0 0 21 21;" xml:space="preserve">
<style type="text/css">
	.st0{fill:#020203;}
</style>
<path class="st0" d="M12.6,13.1l0.8-0.8L11.2,10V7.2H10v3.2L12.6,13.1z"/>
<g>
	<path class="st0" d="M9.8,3.7V0h1.5v3.7C11.3,3.7,9.8,3.7,9.8,3.7z M15.9,6.2l-1-1l2.6-2.7l1.1,1.1C18.5,3.6,15.9,6.2,15.9,6.2z
		 M17.3,11.2V9.7H21v1.5H17.3z M9.8,21v-3.7h1.5V21C11.3,21,9.8,21,9.8,21z M5.2,6.2L2.6,3.6l1.1-1.1l2.6,2.6L5.2,6.2z M17.4,18.4
		l-2.6-2.7l1-1l2.6,2.5L17.4,18.4z M0,11.2V9.7h3.7v1.5C3.7,11.2,0,11.2,0,11.2z M3.6,18.4l-1-1.1l2.6-2.6l0.5,0.5l0.6,0.5L3.6,18.4
		z M10.5,16c-1.5,0-2.8-0.5-3.9-1.6C5.6,13.3,5,12,5,10.5C5,9,5.6,7.7,6.6,6.6C7.7,5.5,9,5,10.5,5c1.5,0,2.8,0.5,3.9,1.6
		C15.5,7.7,16,9,16,10.5c0,1.5-0.5,2.8-1.6,3.9C13.4,15.4,12.1,16,10.5,16z M10.5,14.5c1.1,0,2-0.4,2.8-1.2c0.8-0.8,1.2-1.7,1.2-2.8
		s-0.4-2-1.2-2.8s-1.7-1.2-2.8-1.2s-2,0.4-2.8,1.2s-1.2,1.7-1.2,2.8s0.4,2,1.2,2.8C8.5,14.1,9.4,14.5,10.5,14.5z"/>
</g>
</svg>
